<svg width="149" height="28" viewBox="0 0 149 28" fill="none" xmlns="http://www.w3.org/2000/svg">
<path d="M0.8 1.04H9.68L16.08 19.6L22.4 1.04H30.76V27H25.12V7.8H25L18.44 27H13.44L6.68 7.8H6.52V27H0.8V1.04ZM48.0669 27.4C46.6269 27.4 45.2935 27.3067 44.0669 27.12C42.8669 26.9333 41.6135 26.6133 40.3069 26.16C38.8935 25.68 37.7869 24.9067 36.9869 23.84C36.1869 22.7467 35.7869 21.4267 35.7869 19.88V8.52C35.7869 7.24 36.0669 6.09333 36.6269 5.08C37.2135 4.06667 37.9602 3.26667 38.8669 2.68C39.6669 2.17333 40.6535 1.74667 41.8269 1.4C43.0002 1.05333 44.0935 0.839998 45.1069 0.759999C46.0402 0.679999 47.0269 0.639998 48.0669 0.639998C49.2935 0.639998 50.3602 0.693332 51.2669 0.799999C52.1735 0.879999 53.1869 1.06667 54.3069 1.36C55.5869 1.73333 56.6402 2.18667 57.4669 2.72C58.2935 3.25333 58.9869 4 59.5469 4.96C60.1335 5.94667 60.4269 7.13333 60.4269 8.52V19.88C60.4269 21.32 60.0402 22.56 59.2669 23.6C58.5202 24.64 57.4802 25.4267 56.1469 25.96C53.7469 26.92 51.0535 27.4 48.0669 27.4ZM48.1469 22.96C49.0269 22.96 49.7602 22.9333 50.3469 22.88C50.9602 22.8 51.5869 22.6667 52.2269 22.48C52.8669 22.2933 53.3469 21.9867 53.6669 21.56C54.0135 21.1067 54.1869 20.5467 54.1869 19.88V8.48C54.1869 7.25333 53.6935 6.38667 52.7069 5.88C51.7202 5.34667 50.1869 5.08 48.1069 5.08C46.0269 5.08 44.4935 5.33333 43.5069 5.84C42.5202 6.34666 42.0269 7.22666 42.0269 8.48V19.88C42.0269 20.5467 42.2002 21.1067 42.5469 21.56C42.8935 21.9867 43.4002 22.2933 44.0669 22.48C44.7069 22.6667 45.3202 22.8 45.9069 22.88C46.5202 22.9333 47.2669 22.96 48.1469 22.96ZM62.6484 1.04H68.9684L75.9284 21.8H76.0884L83.0484 1.04H89.2084L79.6084 27H71.9684L62.6484 1.04ZM92.0109 1.04H98.2509V27H92.0109V1.04ZM103.847 1.04H123.647V5.48H110.087V11.44H122.327V15.88H110.087V22.56H124.047V27H103.847V1.04ZM136.661 27.4C134.181 27.4 131.114 27.16 127.461 26.68V21.92C131.994 22.6133 135.088 22.96 136.741 22.96C140.208 22.96 141.941 22.0667 141.941 20.28V18.6C141.941 17.7467 141.688 17.0933 141.181 16.64C140.701 16.1867 139.821 15.96 138.541 15.96H135.501C129.794 15.96 126.941 13.6933 126.941 9.16V7.24C126.941 4.97333 127.888 3.30666 129.781 2.24C131.674 1.17333 134.674 0.639998 138.781 0.639998C140.914 0.639998 143.621 0.813332 146.901 1.16V5.8C142.874 5.32 140.101 5.08 138.581 5.08C136.474 5.08 135.061 5.25333 134.341 5.6C133.568 5.97333 133.181 6.56 133.181 7.36V9.2C133.181 10.56 134.328 11.24 136.621 11.24H139.741C142.701 11.24 144.848 11.7867 146.181 12.88C147.514 13.9733 148.181 15.64 148.181 17.88V19.6C148.181 22.6933 147.074 24.7867 144.861 25.88C143.794 26.44 142.608 26.8267 141.301 27.04C140.021 27.28 138.474 27.4 136.661 27.4Z" fill="white"/>
</svg>
